<svg width="144" height="103" viewBox="0 0 144 103" fill="none" xmlns="http://www.w3.org/2000/svg">
<path fill-rule="evenodd" clip-rule="evenodd" d="M92.5 0C120.943 0 144 23.0573 144 51.5C144 79.9427 120.943 103 92.5 103C64.0573 103 41 79.9427 41 51.5C41 23.0573 64.0573 0 92.5 0Z" fill="#FFB715"/>
<path fill-rule="evenodd" clip-rule="evenodd" d="M45.0508 26.078C28.2365 26.078 14.5575 39.8741 14.5575 56.8296C14.5575 73.7866 28.2365 87.5811 45.0508 87.5811C61.8651 87.5811 75.5448 73.7866 75.5448 56.8296C75.5448 39.8741 61.8651 26.078 45.0508 26.078ZM45.0508 88.6864C27.6309 88.6864 13.4607 74.3958 13.4607 56.8296C13.4607 39.2641 27.6309 24.9727 45.0508 24.9727C62.4692 24.9727 76.6408 39.2641 76.6408 56.8296C76.6408 74.3958 62.4692 88.6864 45.0508 88.6864Z" fill="white"/>
<path fill-rule="evenodd" clip-rule="evenodd" d="M45.0273 31.5078C30.8977 31.5078 19.4026 43.0999 19.4026 57.3481C19.4026 71.597 30.8977 83.1899 45.0273 83.1899C59.1576 83.1899 70.6512 71.597 70.6512 57.3481C70.6512 43.0999 59.1576 31.5078 45.0273 31.5078ZM45.0272 84.2952C30.2928 84.2952 18.3065 72.2062 18.3065 57.3481C18.3065 42.4899 30.2928 30.4025 45.0272 30.4025C59.7617 30.4025 71.7472 42.4899 71.7472 57.3481C71.7472 72.2062 59.7617 84.2952 45.0272 84.2952Z" fill="white"/>
<path fill-rule="evenodd" clip-rule="evenodd" d="M45.0514 54.3127C43.6755 54.3127 42.5558 55.4411 42.5558 56.8287C42.5558 58.2163 43.6755 59.3446 45.0514 59.3446C46.4281 59.3446 47.5463 58.2163 47.5463 56.8287C47.5463 55.4411 46.4281 54.3127 45.0514 54.3127ZM45.0514 60.4514C43.072 60.4514 41.459 58.827 41.459 56.8287C41.459 54.8319 43.072 53.2074 45.0514 53.2074C47.0315 53.2074 48.6423 54.8319 48.6423 56.8287C48.6423 58.827 47.0315 60.4514 45.0514 60.4514Z" fill="white"/>
<path fill-rule="evenodd" clip-rule="evenodd" d="M53.5253 97.4676C53.2697 97.4676 53.04 97.2851 52.9868 97.023L45.6122 59.8348L38.2361 97.023C38.1785 97.3209 37.8883 97.5153 37.5928 97.4564C37.2945 97.3976 37.1032 97.1056 37.1623 96.8047L45.0745 56.9099C45.1262 56.65 45.3515 56.4653 45.6122 56.4653C45.8729 56.4653 46.0982 56.65 46.1499 56.9099L54.0629 96.8047C54.122 97.1056 53.9285 97.3976 53.6331 97.4564C53.5954 97.4639 53.5607 97.4676 53.5253 97.4676Z" fill="white"/>
<path fill-rule="evenodd" clip-rule="evenodd" d="M75.5975 38.022C75.3752 38.022 75.1536 38.0816 74.9601 38.1948C74.3501 38.5515 74.1403 39.3418 74.4934 39.9562C74.8309 40.5469 75.6463 40.7733 76.2371 40.4277C76.8494 40.0732 77.0591 39.2815 76.7061 38.667C76.4786 38.2685 76.0532 38.022 75.5975 38.022ZM75.602 41.7051C74.7541 41.7051 73.9668 41.2463 73.5429 40.5081C72.89 39.3664 73.2792 37.8983 74.4129 37.2392C74.7733 37.0292 75.1818 36.9182 75.5976 36.9182C76.4432 36.9182 77.2328 37.3755 77.6545 38.1158C78.3096 39.2576 77.9204 40.7241 76.7859 41.384C76.427 41.5941 76.0171 41.7051 75.602 41.7051Z" fill="white"/>
<path fill-rule="evenodd" clip-rule="evenodd" d="M14.7577 73.8583C14.5354 73.8583 14.3145 73.9179 14.1218 74.0311C13.8241 74.2047 13.6129 74.4825 13.5242 74.8147C13.4371 75.1469 13.4807 75.4939 13.652 75.7911C13.9895 76.3825 14.8064 76.6089 15.3995 76.2633C16.0095 75.9095 16.2186 75.1178 15.8663 74.5033C15.6403 74.1049 15.2148 73.8583 14.7577 73.8583ZM14.7607 77.5414C13.9143 77.5414 13.1255 77.0819 12.7023 76.3445C12.3854 75.7911 12.3012 75.1461 12.4667 74.5279C12.6299 73.9105 13.0243 73.3943 13.5745 73.0733C13.9342 72.8648 14.3426 72.7545 14.7577 72.7545C15.6049 72.7545 16.3929 73.2118 16.8161 73.9499C17.4697 75.094 17.0798 76.5605 15.9468 77.2204C15.5864 77.4297 15.1765 77.5414 14.7607 77.5414Z" fill="white"/>
<path fill-rule="evenodd" clip-rule="evenodd" d="M68.0614 28.2499C67.6818 28.2499 67.3258 28.4175 67.0821 28.7095C66.8642 28.9724 66.7593 29.3068 66.7881 29.6502C66.8191 29.9935 66.9772 30.3041 67.2394 30.5238C67.7638 30.9677 68.6035 30.8895 69.0422 30.3644C69.2609 30.1022 69.3657 29.7671 69.3347 29.4245C69.3052 29.0811 69.1449 28.7728 68.8827 28.5516C68.6545 28.3564 68.3605 28.2499 68.0614 28.2499ZM68.06 31.9315C67.5031 31.9315 66.9625 31.7334 66.5356 31.3707C66.0511 30.961 65.752 30.3845 65.6973 29.7462C65.6426 29.1094 65.8354 28.4883 66.2416 27.9997C66.6951 27.456 67.3561 27.1446 68.0615 27.1446C68.6191 27.1446 69.1604 27.3435 69.5873 27.704C70.0726 28.1144 70.3695 28.6901 70.4264 29.3276C70.4817 29.9652 70.2882 30.5856 69.8805 31.0765C69.4271 31.6202 68.7631 31.9315 68.06 31.9315Z" fill="white"/>
<path fill-rule="evenodd" clip-rule="evenodd" d="M22.2953 83.0919C21.9157 83.0919 21.5582 83.2595 21.3152 83.5514C20.8625 84.0966 20.9334 84.9114 21.4725 85.368C21.9925 85.8074 22.8359 85.7315 23.2709 85.2094C23.7244 84.6649 23.655 83.8501 23.1136 83.3928C22.8839 83.1969 22.5929 83.0919 22.2953 83.0919ZM22.2924 86.7742C21.737 86.7742 21.1956 86.5753 20.7694 86.2149C19.7665 85.3673 19.635 83.8531 20.4747 82.8431C20.926 82.2987 21.5885 81.9851 22.2953 81.9851C22.8507 81.9851 23.3928 82.1847 23.8197 82.5459C24.8205 83.3973 24.9512 84.91 24.1107 85.9199C23.6595 86.4621 22.997 86.7742 22.2924 86.7742Z" fill="white"/>
<path fill-rule="evenodd" clip-rule="evenodd" d="M57.294 22.8194C56.7585 22.8194 56.2762 23.1605 56.0953 23.667C55.9771 23.9917 55.9911 24.3403 56.1344 24.6524C56.2792 24.9667 56.5355 25.2028 56.8553 25.3205C57.5104 25.5633 58.2593 25.1991 58.4941 24.5503C58.7334 23.8823 58.393 23.1412 57.7327 22.8991C57.5909 22.847 57.4424 22.8194 57.294 22.8194ZM57.294 26.504C57.0163 26.504 56.7416 26.4548 56.4801 26.3573C55.8848 26.1398 55.4099 25.6996 55.1418 25.1179C54.8745 24.5384 54.8479 23.889 55.065 23.2894C55.4018 22.3494 56.2984 21.7149 57.294 21.7149C57.5725 21.7149 57.8457 21.7633 58.1065 21.8601C59.334 22.3107 59.9699 23.6879 59.5223 24.928C59.1833 25.8701 58.2867 26.504 57.294 26.504Z" fill="white"/>
<path fill-rule="evenodd" clip-rule="evenodd" d="M33.5996 89.6054C33.0649 89.6054 32.5841 89.9465 32.3995 90.4537C32.1609 91.1195 32.5036 91.8629 33.1668 92.1072C33.8057 92.338 34.5664 91.9828 34.8028 91.3333C35.0406 90.666 34.6986 89.9256 34.0391 89.6851C33.8958 89.6322 33.7474 89.6054 33.5996 89.6054ZM33.5974 93.2884C33.3227 93.2884 33.0524 93.2407 32.7902 93.1454C31.5605 92.6896 30.9246 91.3132 31.3721 90.0761C31.7119 89.1339 32.607 88.5008 33.5997 88.5008C33.8759 88.5008 34.1499 88.55 34.4143 88.6468C35.6411 89.0944 36.2777 90.4686 35.8324 91.7117C35.4889 92.6546 34.593 93.2884 33.5974 93.2884Z" fill="white"/>
<path fill-rule="evenodd" clip-rule="evenodd" d="M45.4488 20.1068C45.1084 20.1068 44.7863 20.2416 44.5448 20.4844C44.3033 20.728 44.1711 21.0512 44.1711 21.396C44.1711 21.7401 44.3033 22.0619 44.5419 22.3069C44.7856 22.5483 45.1039 22.6831 45.4429 22.6831L45.4503 23.2357V22.6831C46.1549 22.6831 46.7258 22.1066 46.7258 21.3938C46.7258 20.684 46.1549 20.1068 45.4488 20.1068ZM45.4503 23.7884H45.4459C44.8107 23.7884 44.2161 23.5396 43.7678 23.086C43.3203 22.6339 43.0743 22.0336 43.0743 21.396C43.0743 20.7577 43.3217 20.1567 43.77 19.7038C44.2176 19.251 44.8136 19.0022 45.4488 19C46.7576 19 47.8226 20.0748 47.8226 21.3938C47.8226 22.7151 46.7576 23.7884 45.4503 23.7884Z" fill="white"/>
<path fill-rule="evenodd" clip-rule="evenodd" d="M45.4503 91.235C44.7413 91.235 44.1711 91.8115 44.1711 92.5213C44.1711 93.2318 44.7442 93.8098 45.4474 93.8098C46.1527 93.8098 46.7258 93.2318 46.7258 92.5213C46.7258 91.8115 46.1549 91.235 45.4503 91.235ZM45.4473 94.9158C44.1386 94.9158 43.0743 93.8403 43.0743 92.5213C43.0743 91.203 44.1371 90.1297 45.4429 90.1297C46.7576 90.1297 47.8226 91.203 47.8226 92.5213C47.8226 93.8403 46.7561 94.9158 45.4473 94.9158Z" fill="white"/>
<path fill-rule="evenodd" clip-rule="evenodd" d="M33.5999 22.8194C33.4537 22.8194 33.3052 22.8455 33.1649 22.8976C32.8451 23.0153 32.5888 23.2522 32.444 23.5635C32.3008 23.8763 32.2867 24.2271 32.4027 24.5496C32.6338 25.1976 33.3872 25.5618 34.0379 25.3197C34.6989 25.0762 35.0408 24.3351 34.8023 23.6663C34.6184 23.1605 34.1339 22.8194 33.5999 22.8194ZM33.6035 26.5025C32.605 26.5025 31.7113 25.8694 31.3738 24.9272C31.1567 24.3284 31.184 23.6774 31.4521 23.0972C31.718 22.5178 32.1943 22.0783 32.7904 21.8586C33.0511 21.7618 33.3244 21.7149 33.5998 21.7149C34.5932 21.7149 35.4891 22.3472 35.8303 23.2879C36.2779 24.5317 35.6412 25.9074 34.4123 26.3565C34.1538 26.4533 33.8798 26.5025 33.6035 26.5025Z" fill="white"/>
<path fill-rule="evenodd" clip-rule="evenodd" d="M57.291 89.6046C57.144 89.6046 56.997 89.6322 56.8552 89.6828C56.5354 89.8012 56.2791 90.0373 56.1359 90.3494C55.9926 90.6607 55.9785 91.0108 56.0938 91.334C56.3271 91.9835 57.0834 92.3462 57.7326 92.1057C58.051 91.9895 58.3095 91.7504 58.452 91.4398C58.5968 91.1262 58.6115 90.7769 58.4941 90.4552C58.3109 89.9465 57.8294 89.6046 57.291 89.6046ZM57.2991 93.2884C56.2998 93.2884 55.4039 92.6553 55.0634 91.7124C54.8478 91.1121 54.8751 90.4619 55.1432 89.8839C55.4098 89.303 55.8847 88.862 56.4815 88.6453C56.7415 88.5485 57.0147 88.5008 57.2909 88.5008C58.288 88.5008 59.1861 89.1339 59.5259 90.0768C59.9727 91.3132 59.3397 92.6888 58.1078 93.1439C57.8456 93.2415 57.5753 93.2884 57.2991 93.2884Z" fill="white"/>
<path fill-rule="evenodd" clip-rule="evenodd" d="M22.2933 28.2499C21.9919 28.2499 21.7009 28.3564 21.4698 28.5508C20.9336 29.0066 20.8619 29.8222 21.3139 30.3644C21.7504 30.8895 22.5968 30.967 23.1146 30.5253C23.376 30.3041 23.5363 29.9965 23.5658 29.6561C23.5969 29.312 23.492 28.9754 23.2719 28.7072C23.0282 28.4175 22.6714 28.2499 22.2933 28.2499ZM22.2962 31.9315C21.5924 31.9315 20.9269 31.6202 20.4757 31.075C19.6359 30.0665 19.7659 28.5538 20.7652 27.7032C21.195 27.342 21.7379 27.1446 22.2933 27.1446C22.9957 27.1446 23.6589 27.4567 24.1117 27.9967C24.5201 28.492 24.7136 29.1161 24.6575 29.7552C24.6006 30.3883 24.3029 30.964 23.8192 31.3729C23.396 31.7311 22.8531 31.9315 22.2962 31.9315Z" fill="white"/>
<path fill-rule="evenodd" clip-rule="evenodd" d="M68.06 83.0904C67.7594 83.0904 67.4684 83.1969 67.241 83.3913C66.9773 83.6118 66.8192 83.9224 66.7882 84.2657C66.7594 84.6098 66.8636 84.9427 67.0822 85.2042C67.5179 85.73 68.3621 85.806 68.8821 85.3665C69.145 85.1446 69.3067 84.8332 69.337 84.4899C69.3658 84.1458 69.2595 83.8129 69.0394 83.5499C68.7971 83.258 68.4397 83.0904 68.06 83.0904ZM68.0644 86.772C67.3583 86.772 66.6951 86.4584 66.2416 85.914C65.8354 85.4269 65.6426 84.8079 65.6973 84.1696C65.752 83.5328 66.0511 82.9548 66.5385 82.5445C66.9625 82.184 67.5016 81.9851 68.06 81.9851C68.7638 81.9851 69.4271 82.2957 69.8783 82.8379C70.286 83.3258 70.4817 83.9462 70.4278 84.5837C70.3724 85.222 70.0748 85.8008 69.5873 86.2134C69.1627 86.5739 68.622 86.772 68.0644 86.772Z" fill="white"/>
<path fill-rule="evenodd" clip-rule="evenodd" d="M14.7622 38.0227C14.305 38.0227 13.8766 38.2707 13.6484 38.6692C13.2976 39.2815 13.5081 40.0732 14.1181 40.4262C14.7119 40.7726 15.5258 40.5454 15.8626 39.9562C16.0347 39.6591 16.0798 39.3127 15.9934 38.982C15.9047 38.6476 15.6935 38.3668 15.3959 38.194C15.2046 38.0831 14.9837 38.0227 14.7622 38.0227ZM14.7555 41.7036C14.3404 41.7036 13.932 41.5933 13.5709 41.3833C12.4379 40.7264 12.0472 39.2599 12.7001 38.1151C13.1262 37.3747 13.915 36.9182 14.7622 36.9182C15.1743 36.9182 15.5827 37.0292 15.9431 37.2384C16.4971 37.5602 16.89 38.0793 17.0517 38.699C17.215 39.3157 17.13 39.9592 16.8117 40.5104C16.3922 41.2448 15.6034 41.7036 14.7555 41.7036Z" fill="white"/>
<path fill-rule="evenodd" clip-rule="evenodd" d="M75.6055 73.8583C75.1483 73.8583 74.7222 74.1078 74.4954 74.5056C74.3241 74.8005 74.2798 75.1439 74.3662 75.4746C74.4526 75.8105 74.6653 76.0905 74.9637 76.2641C75.5479 76.6015 76.3707 76.381 76.7112 75.7904C76.8803 75.4939 76.9239 75.1461 76.8352 74.8124C76.7481 74.4788 76.5346 74.2024 76.2392 74.0311C76.0457 73.9187 75.8264 73.8583 75.6055 73.8583ZM75.5973 77.5399C75.1837 77.5399 74.7753 77.4289 74.4164 77.2211C73.8624 76.8986 73.4695 76.3795 73.3063 75.7591C73.1446 75.1424 73.2295 74.5004 73.5471 73.9522C73.9688 73.2141 74.7591 72.7545 75.6055 72.7545C76.0191 72.7545 76.429 72.8648 76.7864 73.0748C77.333 73.3913 77.7274 73.9045 77.8928 74.5227C78.059 75.1424 77.977 75.7896 77.6594 76.3438C77.2333 77.0819 76.4445 77.5399 75.5973 77.5399Z" fill="white"/>
<path fill-rule="evenodd" clip-rule="evenodd" d="M10.452 49.4255C9.83014 49.4255 9.30059 49.8739 9.19128 50.4906C9.13145 50.8302 9.20753 51.1713 9.40399 51.4536C9.59971 51.7359 9.89292 51.9251 10.2275 51.9854C10.9387 52.1098 11.5894 51.6294 11.7068 50.9404C11.7681 50.6008 11.695 50.2589 11.4993 49.9789C11.3028 49.6944 11.0082 49.5052 10.6699 49.4434C10.5997 49.4322 10.5259 49.4255 10.452 49.4255ZM10.4498 53.1085C10.3147 53.1085 10.1766 53.0974 10.0392 53.0721C9.4151 52.9626 8.87078 52.6125 8.5074 52.0882C8.14255 51.5631 8.00296 50.9263 8.113 50.2977C8.33901 49.0188 9.54878 48.1273 10.859 48.3567C11.4883 48.4699 12.0348 48.82 12.3974 49.3473C12.7593 49.8709 12.8982 50.5055 12.7881 51.1318C12.5902 52.2759 11.6072 53.1085 10.4498 53.1085Z" fill="white"/>
<path fill-rule="evenodd" clip-rule="evenodd" d="M79.9049 61.9124C79.286 61.9124 78.7572 62.3615 78.6515 62.9797C78.5895 63.3178 78.6656 63.6567 78.8591 63.9375C79.0555 64.222 79.3502 64.4119 79.6878 64.473C80.385 64.5966 81.0489 64.1162 81.1686 63.4266C81.2284 63.0877 81.1509 62.7458 80.9551 62.4628C80.7579 62.1805 80.464 61.9928 80.1257 61.9332C80.0504 61.9198 79.978 61.9124 79.9049 61.9124ZM79.9093 65.5962C79.7734 65.5962 79.636 65.5857 79.4994 65.5604C78.8701 65.448 78.3236 65.0972 77.9587 64.5683C77.5983 64.0462 77.4602 63.4132 77.571 62.7875C77.7933 61.5079 79.009 60.6179 80.3155 60.8443C80.9403 60.9546 81.4854 61.3039 81.851 61.8282C82.2158 62.3511 82.3554 62.9871 82.2491 63.6172C82.0452 64.7657 81.0622 65.5962 79.9093 65.5962Z" fill="white"/>
<path fill-rule="evenodd" clip-rule="evenodd" d="M10.4452 61.9144C10.3729 61.9144 10.299 61.9211 10.2244 61.933C9.53384 62.0604 9.06854 62.7314 9.19114 63.4293C9.31375 64.1183 9.96221 64.5987 10.672 64.472C11.008 64.4147 11.2998 64.2263 11.4962 63.9432C11.6927 63.6602 11.768 63.3183 11.7082 62.9817C11.6018 62.362 11.0708 61.9144 10.4452 61.9144ZM10.4482 65.5967C9.29603 65.5967 8.31374 64.7662 8.11285 63.6222C7.88537 62.3277 8.74506 61.0839 10.0331 60.8448C10.1742 60.821 10.3116 60.8091 10.4452 60.8091C11.607 60.8091 12.5901 61.6433 12.788 62.7918C12.898 63.4181 12.7577 64.052 12.3936 64.5771C12.031 65.1014 11.4866 65.4507 10.8633 65.5609C10.7252 65.5863 10.5848 65.5967 10.4482 65.5967Z" fill="white"/>
<path fill-rule="evenodd" clip-rule="evenodd" d="M79.9122 49.4255C79.8354 49.4255 79.76 49.4315 79.6847 49.4449C79.3487 49.5052 79.0569 49.6929 78.8605 49.9774C78.6655 50.2597 78.5894 50.6001 78.65 50.9352C78.7711 51.6279 79.4173 52.1053 80.1301 51.9839C80.8228 51.8588 81.2896 51.1892 81.1685 50.4891C81.0607 49.8731 80.5304 49.4255 79.9122 49.4255ZM79.9092 53.1071C78.7526 53.1071 77.7696 52.2751 77.5709 51.1281C77.4601 50.5055 77.5983 49.8694 77.9624 49.3451C78.3265 48.8185 78.8701 48.4684 79.4927 48.3575C80.794 48.1258 82.0223 49.0129 82.2476 50.2962C82.4721 51.5959 81.608 52.8397 80.3206 53.0706C80.1818 53.0959 80.0429 53.1071 79.9092 53.1071Z" fill="white"/>
<path fill-rule="evenodd" clip-rule="evenodd" d="M27.1347 67.3322C26.9383 67.3322 26.7477 67.225 26.6495 67.0395C22.9094 59.9594 23.546 51.2079 28.2692 44.7452C28.4501 44.4994 28.7906 44.4458 29.0351 44.6283C29.2781 44.8093 29.3298 45.1556 29.151 45.3999C24.6775 51.5222 24.0748 59.8126 27.617 66.5181C27.7588 66.7885 27.6584 67.1237 27.3903 67.2667C27.3083 67.3114 27.2212 67.3322 27.1347 67.3322Z" fill="white"/>
<path fill-rule="evenodd" clip-rule="evenodd" d="M22.6229 57.039C22.3208 57.039 22.0756 56.7918 22.0756 56.4856C22.0756 43.6012 32.4695 33.1174 45.2475 33.1174C45.5503 33.1174 45.7962 33.3646 45.7962 33.6685C45.7962 33.9746 45.5503 34.2226 45.2475 34.2226C33.0751 34.2226 23.1716 44.2105 23.1716 56.4856C23.1716 56.7918 22.9249 57.039 22.6229 57.039Z" fill="white"/>
<path fill-rule="evenodd" clip-rule="evenodd" d="M45.4943 80.3554C42.95 80.3554 40.4484 79.9413 38.0621 79.125C37.7755 79.0267 37.6227 78.7146 37.7187 78.4249C37.8169 78.1359 38.1278 77.981 38.4144 78.0785C40.6862 78.8561 43.0689 79.2494 45.4943 79.2494C52.2803 79.2494 58.5899 76.1674 62.8064 70.7929C62.9947 70.553 63.3389 70.5121 63.576 70.7027C63.8138 70.8912 63.8544 71.2397 63.6661 71.4781C59.2398 77.1192 52.6164 80.3554 45.4943 80.3554Z" fill="white"/>
<path fill-rule="evenodd" clip-rule="evenodd" d="M89.2993 97.7515H52.777C52.4735 97.7515 52.2275 97.5042 52.2275 97.1981C52.2275 96.8934 52.4735 96.6454 52.777 96.6454H89.2993C89.6006 96.6454 89.8465 96.8934 89.8465 97.1981C89.8465 97.5042 89.6006 97.7515 89.2993 97.7515Z" fill="white"/>
<path fill-rule="evenodd" clip-rule="evenodd" d="M37.0658 97.7515H0.54728C0.244466 97.7515 0 97.5042 0 97.1981C0 96.8934 0.244466 96.6454 0.54728 96.6454H37.0658C37.3679 96.6454 37.6124 96.8934 37.6124 97.1981C37.6124 97.5042 37.3679 97.7515 37.0658 97.7515Z" fill="white"/>
</svg>
