<svg width="142" height="103" viewBox="0 0 142 103" fill="none" xmlns="http://www.w3.org/2000/svg">
<path fill-rule="evenodd" clip-rule="evenodd" d="M71 100C98.062 100 120 77.6142 120 50C120 22.3858 98.062 0 71 0C43.938 0 22 22.3858 22 50C22 77.6142 43.938 100 71 100Z" fill="#DE4859"/>
<path fill-rule="evenodd" clip-rule="evenodd" d="M130.688 81.6558H10.922C10.6198 81.6558 10.3762 81.3988 10.3762 81.0822C10.3762 80.7661 10.6198 80.5091 10.922 80.5091H130.688C130.99 80.5091 131.234 80.7661 131.234 81.0822C131.234 81.3988 130.99 81.6558 130.688 81.6558" fill="white"/>
<path fill-rule="evenodd" clip-rule="evenodd" d="M141.064 78.2159H0.546416C0.24424 78.2159 0 77.9595 0 77.6429C0 77.3263 0.24424 77.0693 0.546416 77.0693H141.064C141.366 77.0693 141.61 77.3263 141.61 77.6429C141.61 77.9595 141.366 78.2159 141.064 78.2159" fill="white"/>
<path fill-rule="evenodd" clip-rule="evenodd" d="M23.4863 38.7367C25.4107 39.1636 27.9718 39.5196 31.1622 39.5196H110.448C113.652 39.5196 116.217 39.1636 118.14 38.7361C117.968 38.739 117.792 38.7402 117.613 38.7402C113.027 38.7402 106.869 37.875 103.365 33.787H38.2446C34.6088 38.0283 28.1007 38.7981 23.4863 38.7367ZM110.448 40.6662H31.1622C22.9222 40.6662 18.798 38.4015 18.6264 38.305C18.3913 38.1732 18.2816 37.8822 18.3668 37.6163C18.4526 37.3515 18.7048 37.1887 18.9712 37.234C18.9922 37.2376 21.1279 37.5936 23.9969 37.5936C28.4273 37.5936 34.381 36.7689 37.5823 32.8407C37.6862 32.7137 37.8379 32.6404 37.9975 32.6404H103.613C103.772 32.6404 103.924 32.7137 104.028 32.8413C107.229 36.7695 113.183 37.5936 117.613 37.5936C120.481 37.5936 122.618 37.2376 122.639 37.234C122.904 37.1917 123.158 37.3515 123.244 37.6163C123.329 37.8822 123.219 38.1732 122.985 38.305C122.812 38.4015 118.689 40.6662 110.448 40.6662V40.6662Z" fill="white"/>
<path fill-rule="evenodd" clip-rule="evenodd" d="M13.57 49.3455C15.4825 50.4564 18.82 51.8451 23.5577 51.8451H118.052C122.79 51.8451 126.128 50.457 128.041 49.3449C126.995 49.4672 125.671 49.5709 124.204 49.5709C120.196 49.5709 114.774 48.7654 111.515 44.9659H30.0954C26.8362 48.7648 21.4146 49.5709 17.4057 49.5709C15.9391 49.5709 14.6163 49.4672 13.57 49.3455ZM118.052 52.9917H23.5578C15.24 52.9917 11.0799 48.9937 10.9067 48.8238C10.7283 48.6479 10.6829 48.3688 10.7959 48.1405C10.909 47.9121 11.1515 47.7899 11.3929 47.8447C11.419 47.8501 14.0602 48.4243 17.4057 48.4243C21.2545 48.4243 26.4653 47.6599 29.4331 44.0202C29.5365 43.8926 29.6882 43.8193 29.8478 43.8193H111.762C111.922 43.8193 112.074 43.8926 112.177 44.0202C115.145 47.6605 120.356 48.4243 124.205 48.4243C127.549 48.4243 130.191 47.8501 130.218 47.8447C130.459 47.7899 130.701 47.9121 130.814 48.1405C130.927 48.3688 130.882 48.6479 130.704 48.8238C130.53 48.9937 126.371 52.9917 118.052 52.9917V52.9917Z" fill="white"/>
<path fill-rule="evenodd" clip-rule="evenodd" d="M29.8479 44.6481C29.5463 44.6481 29.3015 44.3917 29.3015 44.0751V40.0932C29.3015 39.7766 29.5463 39.5196 29.8479 39.5196C30.1495 39.5196 30.3937 39.7766 30.3937 40.0932V44.0751C30.3937 44.3917 30.1495 44.6481 29.8479 44.6481" fill="white"/>
<path fill-rule="evenodd" clip-rule="evenodd" d="M111.763 44.6481C111.461 44.6481 111.217 44.3917 111.217 44.0751V40.0932C111.217 39.7766 111.461 39.5196 111.763 39.5196C112.065 39.5196 112.309 39.7766 112.309 40.0932V44.0751C112.309 44.3917 112.065 44.6481 111.763 44.6481" fill="white"/>
<path fill-rule="evenodd" clip-rule="evenodd" d="M119.954 56.1294H21.6561C21.3545 56.1294 21.1103 55.8724 21.1103 55.5557V52.7199C21.1103 52.4038 21.3545 52.1468 21.6561 52.1468C21.9577 52.1468 22.2026 52.4038 22.2026 52.7199V54.9827H119.408V52.7199C119.408 52.4038 119.652 52.1468 119.954 52.1468C120.256 52.1468 120.501 52.4038 120.501 52.7199V55.5557C120.501 55.8724 120.256 56.1294 119.954 56.1294" fill="white"/>
<path fill-rule="evenodd" clip-rule="evenodd" d="M130.33 78.2159C130.028 78.2159 129.784 77.9595 129.784 77.6429V68.4555H11.8264V77.6429C11.8264 77.9595 11.5821 78.2159 11.2805 78.2159C10.9784 78.2159 10.7347 77.9595 10.7347 77.6429V67.8819C10.7347 67.5653 10.9784 67.3089 11.2805 67.3089H130.33C130.632 67.3089 130.876 67.5653 130.876 67.8819V77.6429C130.876 77.9595 130.632 78.2159 130.33 78.2159" fill="white"/>
<path fill-rule="evenodd" clip-rule="evenodd" d="M84.2969 70.4697H57.1528C56.8512 70.4697 56.6069 70.2127 56.6069 69.8961C56.6069 69.5795 56.8512 69.3231 57.1528 69.3231H84.2969C84.5991 69.3231 84.8434 69.5795 84.8434 69.8961C84.8434 70.2127 84.5991 70.4697 84.2969 70.4697" fill="white"/>
<path fill-rule="evenodd" clip-rule="evenodd" d="M86.3133 73.0015H55.1505C54.8489 73.0015 54.6047 72.7451 54.6047 72.4285C54.6047 72.1118 54.8489 71.8549 55.1505 71.8549H86.3133C86.6149 71.8549 86.8591 72.1118 86.8591 72.4285C86.8591 72.7451 86.6149 73.0015 86.3133 73.0015" fill="white"/>
<path fill-rule="evenodd" clip-rule="evenodd" d="M88.1819 75.5339H52.9847C52.6825 75.5339 52.4383 75.2775 52.4383 74.9602C52.4383 74.6442 52.6825 74.3872 52.9847 74.3872H88.1819C88.4841 74.3872 88.7284 74.6442 88.7284 74.9602C88.7284 75.2775 88.4841 75.5339 88.1819 75.5339" fill="white"/>
<path fill-rule="evenodd" clip-rule="evenodd" d="M112.354 45.6033C112.338 45.6033 112.325 45.6027 112.317 45.6027C112.016 45.598 111.776 45.3368 111.781 45.0202C111.786 44.7041 112.02 44.4567 112.336 44.4567C112.6 44.4615 118.388 44.4442 122.255 37.5101C122.407 37.237 122.742 37.1446 123.002 37.305C123.263 37.4654 123.35 37.8166 123.197 38.0897C119.108 45.4227 112.942 45.6033 112.354 45.6033" fill="white"/>
<path fill-rule="evenodd" clip-rule="evenodd" d="M119.954 55.285C119.653 55.285 119.408 55.0286 119.408 54.712C119.408 54.396 119.652 54.139 119.954 54.1384C120.021 54.1378 126.774 54.0531 129.851 48.1309C129.995 47.8531 130.328 47.7505 130.591 47.902C130.857 48.054 130.954 48.4022 130.81 48.6801C127.417 55.2099 120.257 55.285 119.954 55.285" fill="white"/>
<path fill-rule="evenodd" clip-rule="evenodd" d="M21.6561 55.285C21.3534 55.285 14.1938 55.2099 10.8011 48.6801C10.6563 48.4022 10.7539 48.054 11.0192 47.902C11.2822 47.7505 11.615 47.8531 11.7599 48.1309C14.8367 54.0531 21.5891 54.1378 21.6567 54.1384C21.9577 54.139 22.2026 54.396 22.202 54.712C22.202 55.0286 21.9572 55.285 21.6561 55.285" fill="white"/>
<path fill-rule="evenodd" clip-rule="evenodd" d="M29.0141 45.6033C28.4268 45.6033 22.2594 45.4232 18.1698 38.0897C18.0182 37.8166 18.1056 37.4654 18.3658 37.305C18.6242 37.1446 18.9599 37.237 19.1133 37.5101C22.9836 44.4519 28.7795 44.4573 29.0334 44.4567C29.0351 44.4567 29.0379 44.4567 29.0402 44.4567C29.339 44.4567 29.5826 44.7077 29.5872 45.0214C29.5912 45.3374 29.352 45.598 29.0504 45.6027C29.043 45.6027 29.0311 45.6033 29.0141 45.6033" fill="white"/>
<path fill-rule="evenodd" clip-rule="evenodd" d="M23.2947 67.3089H24.3864V56.1293H23.2947V67.3089ZM24.9329 68.4555H22.7484C22.4468 68.4555 22.2025 68.1985 22.2025 67.8819V55.5557C22.2025 55.2391 22.4468 54.9827 22.7484 54.9827H24.9329C25.2345 54.9827 25.4793 55.2391 25.4793 55.5557V67.8819C25.4793 68.1985 25.2345 68.4555 24.9329 68.4555V68.4555Z" fill="white"/>
<path fill-rule="evenodd" clip-rule="evenodd" d="M33.7313 67.3089H34.8235V56.1293H33.7313V67.3089ZM35.3694 68.4555H33.1849C32.8833 68.4555 32.639 68.1985 32.639 67.8819V55.5557C32.639 55.2391 32.8833 54.9827 33.1849 54.9827H35.3694C35.671 54.9827 35.9158 55.2391 35.9158 55.5557V67.8819C35.9158 68.1985 35.671 68.4555 35.3694 68.4555V68.4555Z" fill="white"/>
<path fill-rule="evenodd" clip-rule="evenodd" d="M44.1677 67.3089H45.2599V56.1293H44.1677V67.3089ZM45.8064 68.4555H43.6219C43.3202 68.4555 43.0754 68.1985 43.0754 67.8819V55.5557C43.0754 55.2391 43.3202 54.9827 43.6219 54.9827H45.8064C46.108 54.9827 46.3522 55.2391 46.3522 55.5557V67.8819C46.3522 68.1985 46.108 68.4555 45.8064 68.4555V68.4555Z" fill="white"/>
<path fill-rule="evenodd" clip-rule="evenodd" d="M54.6046 67.3089H55.6963V56.1293H54.6046V67.3089ZM56.2428 68.4555H54.0583C53.7566 68.4555 53.5118 68.1985 53.5118 67.8819V55.5557C53.5118 55.2391 53.7566 54.9827 54.0583 54.9827H56.2428C56.5444 54.9827 56.7892 55.2391 56.7892 55.5557V67.8819C56.7892 68.1985 56.5444 68.4555 56.2428 68.4555V68.4555Z" fill="white"/>
<path fill-rule="evenodd" clip-rule="evenodd" d="M44.9397 77.0693H50.593L57.3266 68.6129H56.482L44.9397 77.0693ZM50.8491 78.2159H43.2038C42.9653 78.2159 42.754 78.0537 42.683 77.8146C42.6114 77.5761 42.6955 77.3161 42.8909 77.173L55.9975 67.57C56.0889 67.5027 56.198 67.4663 56.3099 67.4663H58.4944C58.7068 67.4663 58.8994 67.5951 58.9891 67.7972C59.0789 67.9988 59.0493 68.2367 58.9136 68.4072L51.2683 78.0102C51.1638 78.1408 51.0104 78.2159 50.8491 78.2159V78.2159Z" fill="white"/>
<path fill-rule="evenodd" clip-rule="evenodd" d="M90.7204 77.0693H96.3737L84.8325 68.6129H83.9874L90.7204 77.0693ZM98.1101 78.2159H90.4648C90.3035 78.2159 90.1495 78.1408 90.0456 78.0102L82.4003 68.4072C82.264 68.2367 82.235 67.9988 82.3248 67.7972C82.4145 67.5951 82.6076 67.4663 82.8195 67.4663H85.004C85.1159 67.4663 85.2244 67.5027 85.3164 67.57L98.423 77.173C98.6184 77.3161 98.703 77.5761 98.6315 77.8146C98.5599 78.0537 98.3486 78.2159 98.1101 78.2159V78.2159Z" fill="white"/>
<path fill-rule="evenodd" clip-rule="evenodd" d="M65.0405 67.3089H66.1328V56.1293H65.0405V67.3089ZM66.6787 68.4555H64.4941C64.1925 68.4555 63.9483 68.1985 63.9483 67.8819V55.5557C63.9483 55.2391 64.1925 54.9827 64.4941 54.9827H66.6787C66.9808 54.9827 67.2251 55.2391 67.2251 55.5557V67.8819C67.2251 68.1985 66.9808 68.4555 66.6787 68.4555V68.4555Z" fill="white"/>
<path fill-rule="evenodd" clip-rule="evenodd" d="M75.4769 67.3089H76.5692V56.1293H75.4769V67.3089ZM77.1157 68.4555H74.9311C74.6289 68.4555 74.3847 68.1985 74.3847 67.8819V55.5557C74.3847 55.2391 74.6289 54.9827 74.9311 54.9827H77.1157C77.4173 54.9827 77.6615 55.2391 77.6615 55.5557V67.8819C77.6615 68.1985 77.4173 68.4555 77.1157 68.4555V68.4555Z" fill="white"/>
<path fill-rule="evenodd" clip-rule="evenodd" d="M85.9134 67.3089H87.0062V56.1293H85.9134V67.3089ZM87.5521 68.4555H85.3676C85.066 68.4555 84.8217 68.1985 84.8217 67.8819V55.5557C84.8217 55.2391 85.066 54.9827 85.3676 54.9827H87.5521C87.8537 54.9827 88.0979 55.2391 88.0979 55.5557V67.8819C88.0979 68.1985 87.8537 68.4555 87.5521 68.4555V68.4555Z" fill="white"/>
<path fill-rule="evenodd" clip-rule="evenodd" d="M96.3503 67.3089H97.4426V56.1293H96.3503V67.3089ZM97.9885 68.4555H95.804C95.5024 68.4555 95.2581 68.1985 95.2581 67.8819V55.5557C95.2581 55.2391 95.5024 54.9827 95.804 54.9827H97.9885C98.2907 54.9827 98.5349 55.2391 98.5349 55.5557V67.8819C98.5349 68.1985 98.2907 68.4555 97.9885 68.4555V68.4555Z" fill="white"/>
<path fill-rule="evenodd" clip-rule="evenodd" d="M106.787 67.3089H107.879V56.1293H106.787V67.3089ZM108.426 68.4555H106.241C105.939 68.4555 105.695 68.1985 105.695 67.8819V55.5557C105.695 55.2391 105.939 54.9827 106.241 54.9827H108.426C108.727 54.9827 108.971 55.2391 108.971 55.5557V67.8819C108.971 68.1985 108.727 68.4555 108.426 68.4555V68.4555Z" fill="white"/>
<path fill-rule="evenodd" clip-rule="evenodd" d="M117.223 67.3089H118.315V56.1293H117.223V67.3089ZM118.862 68.4555H116.677C116.376 68.4555 116.131 68.1985 116.131 67.8819V55.5557C116.131 55.2391 116.376 54.9827 116.677 54.9827H118.862C119.164 54.9827 119.408 55.2391 119.408 55.5557V67.8819C119.408 68.1985 119.164 68.4555 118.862 68.4555V68.4555Z" fill="white"/>
<path fill-rule="evenodd" clip-rule="evenodd" d="M33.1848 61.0176C32.8832 61.0176 32.6389 60.7612 32.6389 60.4446C32.6389 58.416 30.9855 56.7024 29.0293 56.7024C27.0708 56.7024 25.4793 58.3737 25.4793 60.4285C25.4793 60.7451 25.2345 61.0021 24.9329 61.0021C24.6307 61.0021 24.3865 60.7451 24.3865 60.4285C24.3865 57.7417 26.4693 55.5557 29.0293 55.5557C31.6217 55.5557 33.7312 57.7488 33.7312 60.4446C33.7312 60.7612 33.4864 61.0176 33.1848 61.0176" fill="white"/>
<path fill-rule="evenodd" clip-rule="evenodd" d="M43.6218 61.0176C43.3202 61.0176 43.0754 60.7612 43.0754 60.4446C43.0754 58.416 41.4225 56.7024 39.4657 56.7024C37.5079 56.7024 35.9158 58.3737 35.9158 60.4285C35.9158 60.7451 35.6709 61.0021 35.3693 61.0021C35.0672 61.0021 34.8235 60.7451 34.8235 60.4285C34.8235 57.7417 36.9058 55.5557 39.4657 55.5557C42.0587 55.5557 44.1677 57.7488 44.1677 60.4446C44.1677 60.7612 43.9234 61.0176 43.6218 61.0176" fill="white"/>
<path fill-rule="evenodd" clip-rule="evenodd" d="M54.0576 61.0176C53.756 61.0176 53.5118 60.7612 53.5118 60.4446C53.5118 58.416 51.8589 56.7024 49.9022 56.7024C47.9443 56.7024 46.3522 58.3737 46.3522 60.4285C46.3522 60.7451 46.1079 61.0021 45.8063 61.0021C45.5041 61.0021 45.2599 60.7451 45.2599 60.4285C45.2599 57.7417 47.3427 55.5557 49.9022 55.5557C52.4945 55.5557 54.6035 57.7488 54.6035 60.4446C54.6035 60.7612 54.3592 61.0176 54.0576 61.0176" fill="white"/>
<path fill-rule="evenodd" clip-rule="evenodd" d="M64.4942 61.0176C64.1926 61.0176 63.9483 60.7612 63.9483 60.4446C63.9483 58.416 62.2954 56.7024 60.3392 56.7024C58.3808 56.7024 56.7892 58.3737 56.7892 60.4285C56.7892 60.7451 56.5444 61.0021 56.2428 61.0021C55.9412 61.0021 55.6964 60.7451 55.6964 60.4285C55.6964 57.7417 57.7793 55.5557 60.3392 55.5557C62.931 55.5557 65.0406 57.7488 65.0406 60.4446C65.0406 60.7612 64.7963 61.0176 64.4942 61.0176" fill="white"/>
<path fill-rule="evenodd" clip-rule="evenodd" d="M74.9312 61.0176C74.629 61.0176 74.3848 60.7612 74.3848 60.4446C74.3848 58.416 72.7319 56.7024 70.7751 56.7024C68.8178 56.7024 67.2257 58.3737 67.2257 60.4285C67.2257 60.7451 66.9809 61.0021 66.6793 61.0021C66.3777 61.0021 66.1334 60.7451 66.1334 60.4285C66.1334 57.7417 68.2157 55.5557 70.7751 55.5557C73.368 55.5557 75.477 57.7488 75.477 60.4446C75.477 60.7612 75.2328 61.0176 74.9312 61.0176" fill="white"/>
<path fill-rule="evenodd" clip-rule="evenodd" d="M85.3676 61.0176C85.066 61.0176 84.8217 60.7612 84.8217 60.4446C84.8217 58.416 83.1683 56.7024 81.2121 56.7024C79.2536 56.7024 77.6615 58.3737 77.6615 60.4285C77.6615 60.7451 77.4173 61.0021 77.1157 61.0021C76.8135 61.0021 76.5693 60.7451 76.5693 60.4285C76.5693 57.7417 78.6521 55.5557 81.2121 55.5557C83.8045 55.5557 85.9134 57.7488 85.9134 60.4446C85.9134 60.7612 85.6692 61.0176 85.3676 61.0176" fill="white"/>
<path fill-rule="evenodd" clip-rule="evenodd" d="M95.804 61.0176C95.5024 61.0176 95.2582 60.7612 95.2582 60.4446C95.2582 58.416 93.6047 56.7024 91.6486 56.7024C89.6901 56.7024 88.098 58.3737 88.098 60.4285C88.098 60.7451 87.8537 61.0021 87.5521 61.0021C87.2505 61.0021 87.0063 60.7451 87.0063 60.4285C87.0063 57.7417 89.0886 55.5557 91.6486 55.5557C94.2409 55.5557 96.3505 57.7488 96.3505 60.4446C96.3505 60.7612 96.1062 61.0176 95.804 61.0176" fill="white"/>
<path fill-rule="evenodd" clip-rule="evenodd" d="M106.241 61.0176C105.939 61.0176 105.695 60.7612 105.695 60.4446C105.695 58.416 104.042 56.7024 102.085 56.7024C100.127 56.7024 98.535 58.3737 98.535 60.4285C98.535 60.7451 98.2907 61.0021 97.9885 61.0021C97.6869 61.0021 97.4427 60.7451 97.4427 60.4285C97.4427 57.7417 99.525 55.5557 102.085 55.5557C104.678 55.5557 106.787 57.7488 106.787 60.4446C106.787 60.7612 106.543 61.0176 106.241 61.0176" fill="white"/>
<path fill-rule="evenodd" clip-rule="evenodd" d="M116.677 61.0176C116.376 61.0176 116.131 60.7612 116.131 60.4446C116.131 58.416 114.478 56.7024 112.521 56.7024C110.564 56.7024 108.971 58.3737 108.971 60.4285C108.971 60.7451 108.727 61.0021 108.426 61.0021C108.123 61.0021 107.879 60.7451 107.879 60.4285C107.879 57.7417 109.961 55.5557 112.521 55.5557C115.114 55.5557 117.223 57.7488 117.223 60.4446C117.223 60.7612 116.979 61.0176 116.677 61.0176" fill="white"/>
</svg>
