<svg width="145" height="101" viewBox="0 0 145 101" fill="none" xmlns="http://www.w3.org/2000/svg">
<path fill-rule="evenodd" clip-rule="evenodd" d="M72.0259 101C98.8196 101 120.54 78.3904 120.54 50.5C120.54 22.6096 98.8196 0 72.0259 0C45.2321 0 23.5115 22.6096 23.5115 50.5C23.5115 78.3904 45.2321 101 72.0259 101Z" fill="#79317E"/>
<path fill-rule="evenodd" clip-rule="evenodd" d="M143.837 93.0755H0.538761C0.241904 93.0755 0 92.8201 0 92.5043C0 92.189 0.241904 91.9331 0.538761 91.9331H143.837C144.134 91.9331 144.376 92.189 144.376 92.5043C144.376 92.8201 144.134 93.0755 143.837 93.0755" fill="white"/>
<path fill-rule="evenodd" clip-rule="evenodd" d="M130.944 88.9121H13.4313C13.1334 88.9121 12.8926 88.6568 12.8926 88.3409C12.8926 88.0256 13.1334 87.7697 13.4313 87.7697H130.944C131.241 87.7697 131.483 88.0256 131.483 88.3409C131.483 88.6568 131.241 88.9121 130.944 88.9121" fill="white"/>
<path fill-rule="evenodd" clip-rule="evenodd" d="M24.783 88.9121C24.7033 88.9121 24.6224 88.8932 24.5454 88.8533L18.3324 85.5998V88.3409C18.3324 88.6568 18.091 88.9121 17.7936 88.9121C17.4962 88.9121 17.2549 88.6568 17.2549 88.3409V84.6808C17.2549 84.4831 17.3513 84.2992 17.5092 84.1952C17.6676 84.0913 17.8648 84.0804 18.0318 84.1684L25.0222 87.8291C25.2894 87.9691 25.3988 88.3112 25.2668 88.5939C25.1725 88.7961 24.9823 88.9121 24.783 88.9121" fill="white"/>
<path fill-rule="evenodd" clip-rule="evenodd" d="M56.6196 86.6799C56.4628 86.6799 56.3071 86.6074 56.201 86.468C56.0135 86.223 56.0491 85.8631 56.2797 85.6649L72.8697 71.4024C64.4575 54.0903 50.7261 51.564 47.3314 51.2024C53.0126 69.3136 54.3638 85.8934 54.3773 86.0607C54.4015 86.3755 54.1817 86.6513 53.8849 86.6776C53.5869 86.701 53.3278 86.4703 53.303 86.1556C53.2906 85.9871 51.9076 69.0423 46.0529 50.7552C45.9969 50.5792 46.0243 50.3856 46.1278 50.2354C46.2307 50.0852 46.3934 49.9972 46.5712 50.0001C46.7463 50.0035 64.1634 50.5141 74.0297 71.2979C74.1434 71.5378 74.0841 71.8291 73.8875 71.9987L56.9585 86.552C56.8588 86.6376 56.7387 86.6799 56.6196 86.6799" fill="white"/>
<path fill-rule="evenodd" clip-rule="evenodd" d="M87.5277 86.6799C87.4393 86.6799 87.3499 86.6565 87.268 86.6085C87.0072 86.4554 86.9129 86.1081 87.0568 85.8317L90.937 78.3937C91.0803 78.1178 91.4095 78.0184 91.6686 78.1698C91.9294 78.3229 92.0236 78.6702 91.8798 78.9466L87.9996 86.3846C87.9016 86.5731 87.7173 86.6799 87.5277 86.6799" fill="white"/>
<path fill-rule="evenodd" clip-rule="evenodd" d="M84.8328 86.6799C84.6776 86.6799 84.5236 86.6085 84.4169 86.4714L73.132 71.9176C72.9456 71.6771 72.9752 71.3224 73.1988 71.1202C73.2979 71.0306 83.2661 62.2234 97.769 66.18C97.9306 66.224 98.0637 66.3445 98.1294 66.5068C98.1957 66.6696 98.1876 66.8552 98.1063 67.0094L93.7811 75.3019C93.6373 75.5783 93.3102 75.6789 93.0489 75.5252C92.7882 75.3727 92.6939 75.0254 92.8383 74.749L96.8224 67.1099C84.8727 64.1558 76.2687 70.1184 74.3167 71.6463L85.2493 85.7454C85.4384 85.9893 85.405 86.3498 85.1749 86.5491C85.0753 86.6371 84.954 86.6799 84.8328 86.6799" fill="white"/>
<path fill-rule="evenodd" clip-rule="evenodd" d="M71.358 84.358C71.3073 84.358 71.2578 84.3512 71.2093 84.3358L62.3176 81.6306C62.032 81.5438 61.8666 81.2268 61.949 80.9241C62.0309 80.6208 62.3289 80.4448 62.6155 80.5328L71.3898 83.2025L81.5551 81.4296C81.8466 81.3799 82.1257 81.5895 82.1742 81.9008C82.2221 82.2121 82.0239 82.5057 81.7297 82.5571L71.4453 84.3512C71.4162 84.3557 71.3871 84.358 71.358 84.358" fill="white"/>
<path fill-rule="evenodd" clip-rule="evenodd" d="M71.3578 84.358C71.353 84.358 71.3481 84.358 71.3427 84.358C71.0464 84.35 70.811 84.0873 70.819 83.772C70.9882 77.0531 72.9612 71.5783 73.0457 71.3487C73.153 71.0545 73.4654 70.9095 73.7424 71.0226C74.0198 71.1362 74.1578 71.4664 74.0505 71.7611C74.0306 71.8154 72.0604 77.2896 71.8966 83.8028C71.8885 84.113 71.6493 84.358 71.3578 84.358" fill="white"/>
<path fill-rule="evenodd" clip-rule="evenodd" d="M38.933 85.252C38.6351 85.252 38.3943 84.9961 38.3943 84.6808C38.3943 71.7931 35.2468 60.2226 35.2156 60.1072C35.1676 59.9336 35.2 59.7462 35.3034 59.6023C35.4058 59.4583 35.5566 59.3555 35.7382 59.3755C44.0448 59.4658 50.26 63.4361 50.5196 63.6051C50.7734 63.7697 50.8531 64.1215 50.6985 64.39C50.5428 64.659 50.2104 64.7441 49.9577 64.5796C49.8984 64.5413 44.0901 60.8378 36.4434 60.5356C37.139 63.3258 39.4718 73.5147 39.4718 84.6808C39.4718 84.9961 39.231 85.252 38.933 85.252" fill="white"/>
<path fill-rule="evenodd" clip-rule="evenodd" d="M26.763 81.0103C26.5388 81.0103 26.3303 80.8607 26.2533 80.6236L21.9157 67.1859C21.8672 67.0351 21.8802 66.8689 21.9518 66.7284C22.0235 66.5884 22.1474 66.4862 22.2934 66.4474C29.6922 64.4636 37.272 67.2048 37.5915 67.3218C37.8722 67.4258 38.0209 67.7514 37.9229 68.0495C37.8253 68.3466 37.5182 68.5053 37.2376 68.4014C37.1643 68.3745 30.0354 65.8002 23.1279 67.4121L27.2732 80.2541C27.3691 80.5522 27.2193 80.8772 26.9375 80.9789C26.8793 81 26.8211 81.0103 26.763 81.0103" fill="white"/>
<path fill-rule="evenodd" clip-rule="evenodd" d="M105.552 88.9121C105.508 88.9121 105.465 88.9064 105.422 88.8955L96.9791 86.6799H49.0396C48.9846 86.6799 48.9307 86.6708 48.8779 86.6531L44.6616 85.2519H38.9329C38.8532 85.2519 38.774 85.2331 38.7013 85.196L30.3893 81.0103H26.9859L25.1644 82.9415C25.0636 83.0483 24.9262 83.1089 24.7835 83.1089H19.9201V85.5118C19.9201 85.8271 19.6787 86.083 19.3813 86.083C19.0839 86.083 18.8425 85.8271 18.8425 85.5118V82.5377C18.8425 82.2218 19.0839 81.9665 19.3813 81.9665H24.5604L26.382 80.0353C26.4832 79.9285 26.6206 79.8679 26.7629 79.8679H30.5105C30.5908 79.8679 30.6694 79.8868 30.7422 79.9228L39.0547 84.1096H44.744C44.799 84.1096 44.8529 84.1181 44.9057 84.1353L49.122 85.5375H97.0448C97.089 85.5375 97.1321 85.5432 97.1747 85.5541L105.409 87.7149L119.884 74.3703C109.561 72.2438 101.564 78.0773 101.482 78.139C101.239 78.3189 100.903 78.2572 100.732 77.9996C100.56 77.7414 100.619 77.3856 100.862 77.2039C101.224 76.9338 109.864 70.613 121.174 73.4992C121.37 73.5495 121.523 73.7111 121.571 73.9185C121.619 74.1258 121.554 74.3446 121.401 74.4851L105.905 88.7722C105.806 88.8635 105.68 88.9121 105.552 88.9121" fill="white"/>
<path fill-rule="evenodd" clip-rule="evenodd" d="M97.0454 86.6799C96.999 86.6799 96.9521 86.6731 96.9047 86.6599C96.6176 86.5777 96.4473 86.2641 96.5249 85.9596L97.1143 83.6389C97.1844 83.3642 97.4338 83.1871 97.6989 83.2202L101.863 83.7526C102.03 80.8607 101.095 78.729 100.799 78.1355C95.3079 76.037 91.8528 75.3733 90.3098 75.1659L95.5023 85.8465C95.6386 86.127 95.5352 86.4714 95.2707 86.6165C95.0061 86.761 94.6813 86.6508 94.545 86.3698L88.902 74.7621C88.8147 74.5833 88.8233 74.3686 88.9241 74.1972C89.0243 74.027 89.194 73.9093 89.3928 73.9299C89.5512 73.9328 93.3635 74.0578 101.355 77.1342C101.47 77.1782 101.568 77.2628 101.631 77.3724C101.701 77.493 103.324 80.3552 102.887 84.454C102.87 84.6048 102.798 84.743 102.686 84.8378C102.573 84.9315 102.429 84.9749 102.287 84.9566L98.0334 84.4134L97.5653 86.2572C97.5001 86.5114 97.2829 86.6799 97.0454 86.6799" fill="white"/>
<path fill-rule="evenodd" clip-rule="evenodd" d="M103.961 88.4951C103.761 88.4951 103.569 88.3758 103.476 88.1718L101.866 84.6385C101.736 84.354 101.849 84.0125 102.117 83.8754C102.384 83.7377 102.707 83.8571 102.836 84.1416L104.446 87.6749C104.575 87.9594 104.463 88.3009 104.195 88.438C104.119 88.4763 104.04 88.4951 103.961 88.4951" fill="white"/>
<path fill-rule="evenodd" clip-rule="evenodd" d="M122.48 88.9121C122.321 88.9121 122.164 88.8373 122.057 88.6945L120.105 86.0687L114.414 83.7857C114.204 83.7012 114.066 83.4893 114.066 83.2517V79.9953C114.066 79.68 114.307 79.4241 114.604 79.4241C114.902 79.4241 115.143 79.68 115.143 79.9953V82.8564L120.627 85.0555C120.719 85.0926 120.798 85.1548 120.86 85.2365L122.903 87.9879C123.087 88.2352 123.047 88.5945 122.814 88.7899C122.715 88.8727 122.597 88.9121 122.48 88.9121" fill="white"/>
<path fill-rule="evenodd" clip-rule="evenodd" d="M51.0395 86.6799C50.8386 86.6799 50.6446 86.5594 50.5525 86.3532L49.0289 82.9443L42.6295 81.7203L41.1656 84.9292C41.0358 85.2131 40.7147 85.3319 40.4459 85.1948C40.1781 85.0572 40.066 84.715 40.1953 84.4317L41.8375 80.8332C41.9431 80.6019 42.1834 80.4751 42.4183 80.5197L49.4927 81.8722C49.6641 81.9048 49.8101 82.0236 49.8839 82.1898L51.5266 85.8637C51.6537 86.1487 51.5395 86.4891 51.2701 86.6245C51.1958 86.6622 51.1171 86.6799 51.0395 86.6799" fill="white"/>
<path fill-rule="evenodd" clip-rule="evenodd" d="M19.7095 83.0049C19.5554 83.0049 19.4029 82.9358 19.2968 82.801L18.2257 81.449C18.1266 81.3233 18.083 81.1588 18.1056 80.9972C18.1287 80.835 18.2155 80.691 18.3448 80.6025C18.4833 80.5071 21.7826 78.2692 26.2393 78.2515C26.2398 78.2515 26.2409 78.2515 26.2414 78.2515C26.5377 78.2515 26.7791 78.5057 26.7802 78.8204C26.7807 79.1357 26.5404 79.3927 26.243 79.3939C23.108 79.4058 20.5354 80.6373 19.466 81.2382L20.1216 82.067C20.3134 82.3092 20.2838 82.669 20.0554 82.8718C19.9546 82.9615 19.8318 83.0049 19.7095 83.0049" fill="white"/>
</svg>
